{"title":"\nFeed The Devil 2015 Movies 720p BluRay x264 5.1 with Sample ☻rDX","magnet":"magnet:?xt=urn:btih:d6dbc6598e0161f76a13815f8495e1849ac1659d&dn=Feed+The+Devil+2015+Movies+720p+BluRay+x264+5.1+with+Sample+%E2%98%BBrDX&tr=udp%3A%2F%2Ftracker.leechers-paradise.org%3A6969&tr=udp%3A%2F%2Fzer0day.ch%3A1337&tr=udp%3A%2F%2Fopen.demonii.com%3A1337&tr=udp%3A%2F%2Ftracker.coppersurfer.tk%3A6969&tr=udp%3A%2F%2Fexodus.desync.com%3A6969","uploader":"basicssom","categoryP":"video","categoryS":"hd___movies","size":"1246651632","seeders":"0","leechers":"0","description":"----------------------------------------------------------------\r\nFeed The Devil 2015 Movies 720p BluRay x264 5.1 with Sample &#x263B;rDX&#x263B;\r\n\r\nSCREEN SHOTS &amp; POSTER:\r\n   <a href=\"\nhttp://postimage.co.nr/2017/10/diner/index.html\" rel=\"nofollow\" target=\"_NEW\">\nhttp://postimage.co.nr/2017/10/diner/index.html</a>  <a href=\"\nhttp://postimage.co.nr/2017/10/diner/1.html\" rel=\"nofollow\" target=\"_NEW\">\nhttp://postimage.co.nr/2017/10/diner/1.html</a>   <a href=\"\nhttp://postimage.co.nr/2017/10/diner/2.html\" rel=\"nofollow\" target=\"_NEW\">\nhttp://postimage.co.nr/2017/10/diner/2.html</a>   <a href=\"\nhttp://postimage.co.nr/2017/10/diner/3.html\" rel=\"nofollow\" target=\"_NEW\">\nhttp://postimage.co.nr/2017/10/diner/3.html</a>   <a href=\"\nhttp://postimage.co.nr/2017/10/diner/4.html\" rel=\"nofollow\" target=\"_NEW\">\nhttp://postimage.co.nr/2017/10/diner/4.html</a>   <a href=\"\nhttp://postimage.co.nr/2017/10/diner/5.html\" rel=\"nofollow\" target=\"_NEW\">\nhttp://postimage.co.nr/2017/10/diner/5.html</a>   <a href=\"\nhttp://postimage.co.nr/2017/10/diner/6.html\" rel=\"nofollow\" target=\"_NEW\">\nhttp://postimage.co.nr/2017/10/diner/6.html</a>   <a href=\"\nhttp://postimage.co.nr/2017/10/diner/7.html\" rel=\"nofollow\" target=\"_NEW\">\nhttp://postimage.co.nr/2017/10/diner/7.html</a>   <a href=\"\nhttp://postimage.co.nr/2017/10/diner/8.html\" rel=\"nofollow\" target=\"_NEW\">\nhttp://postimage.co.nr/2017/10/diner/8.html</a>   <a href=\"\nhttp://postimage.co.nr/2017/10/diner/9.html\" rel=\"nofollow\" target=\"_NEW\">\nhttp://postimage.co.nr/2017/10/diner/9.html</a>   <a href=\"\nhttp://postimage.co.nr/2017/10/diner/10.html\" rel=\"nofollow\" target=\"_NEW\">\nhttp://postimage.co.nr/2017/10/diner/10.html</a>\r\n\r\nFile size                                : 1.15 GiB\r\nDuration                                 : 1 h 34 min\r\nOverall bit rate                         : 1 736 kb/s\r\nMovie name                               : Feed The Devil 2015 Movies 720p BluRay x264 5.1 &#x263B;rDX&#x263B;\r\n\r\nVideo\r\nID                                       : 1\r\nFormat                                   : AVC\r\nFormat/Info                              : Advanced Video Codec\r\nFormat profile                           : <a href=\"/cdn-cgi/l/email-protection\" class=\"__cf_email__\" data-cfemail=\"7a32131d123a3649544b\">[email&#xA0;protected]</a>\r\nFormat settings, CABAC                   : Yes\r\nFormat settings, ReFrames                : 4 frames\r\nCodec ID                                 : V_MPEG4/ISO/AVC\r\nDuration                                 : 1 h 34 min\r\nBit rate                                 : 1 500 kb/s\r\nWidth                                    : 1 280 pixels\r\nHeight                                   : 544 pixels\r\nDisplay aspect ratio                     : 2.35:1\r\nFrame rate mode                          : Constant\r\nFrame rate                               : 24.000 FPS\r\nColor space                              : YUV\r\nChroma subsampling                       : 4:2:0\r\nBit depth                                : 8 bits\r\nScan type                                : Progressive\r\nBits/(Pixel*Frame)                       : 0.090\r\nStream size                              : 981 MiB (83%)\r\nTitle                                    : &#x263B;rDX&#x263B;\r\nWriting library                          : x264\r\n\r\nAudio\r\nID                                       : 2\r\nFormat                                   : AC-3\r\nFormat/Info                              : Audio Coding 3\r\nMode extension                           : CM (complete main)\r\nFormat settings, Endianness              : Big\r\nCodec ID                                 : A_AC3\r\nDuration                                 : 1 h 34 min\r\nBit rate mode                            : Constant\r\nBit rate                                 : 256 kb/s\r\nChannel(s)                               : 6 channels\r\nChannel positions                        : Front: L C R, Side: L R, LFE\r\nSampling rate                            : 48.0 kHz\r\nFrame rate                               : 31.250 FPS (1536 spf)\r\nBit depth                                : 16 bits\r\nCompression mode                         : Lossy\r\nStream size                              : 174 MiB (15%)\r\nTitle                                    : &#x263B;rDX&#x263B;\r\nDefault                                  : Yes\r\nForced                                   : No","last_updated":"2017-10-13T12:01:48.719Z","parsed":{"xt":"urn:btih:d6dbc6598e0161f76a13815f8495e1849ac1659d","dn":"Feed The Devil 2015 Movies 720p BluRay x264 5.1 with Sample ☻rDX","tr":["udp://exodus.desync.com:6969","udp://open.demonii.com:1337","udp://tracker.coppersurfer.tk:6969","udp://tracker.leechers-paradise.org:6969","udp://zer0day.ch:1337"],"infoHash":"d6dbc6598e0161f76a13815f8495e1849ac1659d","infoHashBuffer":{"type":"Buffer","data":[214,219,198,89,142,1,97,247,106,19,129,95,132,149,225,132,154,193,101,157]},"name":"Feed The Devil 2015 Movies 720p BluRay x264 5.1 with Sample ☻rDX","announce":["udp://exodus.desync.com:6969","udp://open.demonii.com:1337","udp://tracker.coppersurfer.tk:6969","udp://tracker.leechers-paradise.org:6969","udp://zer0day.ch:1337"],"urlList":[]}}